<svg xmlns="http://www.w3.org/2000/svg" version="1.1" width="3300" height="2000"><g id="Notes"><style>
    text {
      font-family: monospace;
      text-anchor: middle;
    }
    text.emphasis {
      font-weight:bold;
    }
    text.lanchor {
      text-anchor: start;
    }
  </style><rect height="2200" id="artboard" fill="white" width="3300" x="0" y="0"/><line id="" style="fill:none;stroke:black;stroke-width:0.5;" x1="263" x2="3036" y1="292" y2="292"/><text class="lanchor emphasis" transform="matrix(1 0 0 1 263 322)">Weight/Scale Variations</text><text transform="matrix(1 0 0 1 559.711 322)">Ultralight</text><text transform="matrix(1 0 0 1 856.422 322)">Thin</text><text transform="matrix(1 0 0 1 1153.13 322)">Light</text><text transform="matrix(1 0 0 1 1449.84 322)">Regular</text><text transform="matrix(1 0 0 1 1746.56 322)">Medium</text><text transform="matrix(1 0 0 1 2043.27 322)">Semibold</text><text transform="matrix(1 0 0 1 2339.98 322)">Bold</text><text transform="matrix(1 0 0 1 2636.69 322)">Heavy</text><text transform="matrix(1 0 0 1 2933.4 322)">Black</text><text id="template-version" style="text-anchor: end;" transform="matrix(1 0 0 1 3036 1933)">Template v.1.0</text><text class="lanchor" transform="matrix(1 0 0 1 263 726)">Small</text><text class="lanchor" transform="matrix(1 0 0 1 263 1156)">Medium</text><text class="lanchor" transform="matrix(1 0 0 1 263 1586)">Large</text></g><g id="Guides"><g id="H-reference" style="fill:#27AAE1;stroke:none;" transform="matrix(1 0 0 1 339 696)"><path d="M 54.9316 0 L 57.666 0 L 30.5664 -70.459 L 28.0762 -70.459 L 0.976562 0 L 3.66211 0 L 12.9395 -24.4629 L 45.7031 -24.4629 Z M 29.1992 -67.0898 L 29.4434 -67.0898 L 44.8242 -26.709 L 13.8184 -26.709 Z"/></g><line id="Baseline-S" style="fill:none;stroke:#27AAE1;opacity:1;stroke-width:0.577;" x1="263" x2="3036" y1="696" y2="696"/><line id="Capline-S" style="fill:none;stroke:#27AAE1;opacity:1;stroke-width:0.577;" x1="263" x2="3036" y1="625.541" y2="625.541"/><g id="H-reference" style="fill:#27AAE1;stroke:none;" transform="matrix(1 0 0 1 339 1126)"><path d="M 54.9316 0 L 57.666 0 L 30.5664 -70.459 L 28.0762 -70.459 L 0.976562 0 L 3.66211 0 L 12.9395 -24.4629 L 45.7031 -24.4629 Z M 29.1992 -67.0898 L 29.4434 -67.0898 L 44.8242 -26.709 L 13.8184 -26.709 Z"/></g><line id="Baseline-M" style="fill:none;stroke:#27AAE1;opacity:1;stroke-width:0.577;" x1="263" x2="3036" y1="1126" y2="1126"/><line id="Capline-M" style="fill:none;stroke:#27AAE1;opacity:1;stroke-width:0.577;" x1="263" x2="3036" y1="1055.54" y2="1055.54"/><g id="H-reference" style="fill:#27AAE1;stroke:none;" transform="matrix(1 0 0 1 339 1556)"><path d="M 54.9316 0 L 57.666 0 L 30.5664 -70.459 L 28.0762 -70.459 L 0.976562 0 L 3.66211 0 L 12.9395 -24.4629 L 45.7031 -24.4629 Z M 29.1992 -67.0898 L 29.4434 -67.0898 L 44.8242 -26.709 L 13.8184 -26.709 Z"/></g><line id="Baseline-L" style="fill:none;stroke:#27AAE1;opacity:1;stroke-width:0.577;" x1="263" x2="3036" y1="1556" y2="1556"/><line id="Capline-L" style="fill:none;stroke:#27AAE1;opacity:1;stroke-width:0.577;" x1="263" x2="3036" y1="1485.54" y2="1485.54"/><rect height="119.336" id="left-margin" style="fill:darkred;stroke:none;opacity:0.4;" width="12.4512" x="1394.06" y="1030.79"/><rect height="119.336" id="right-margin" style="fill:darkgreen;stroke:none;opacity:0.4;" width="12.4512" x="1502.5112" y="1030.79"/><rect x="1406.5112" y="1045" width="96" height="96" fill="none" stroke="blue" stroke-dasharray="5"/><rect x="1394.06" y="1030.79" width="120.9024" height="119.336" fill="none" stroke="blue"/></g><g id="Symbols"><g id="Bold-L" transform="matrix(1 0 0 1 2266 1556)"><path d="M49.826 -7.656  93.686 -18.782  104.812 -62.642  60.953 -51.516  49.826 -7.656 Z M77.324 -31.199 Q75.788 -31.199 74.578 -32.484 Q73.369 -33.769 73.369 -35.306 Q73.369 -36.842 74.654 -38.052 Q75.939 -39.261 77.476 -39.261 Q79.013 -39.261 80.222 -37.976 Q81.431 -36.691 81.431 -35.154 Q81.431 -33.617 80.146 -32.408 Q78.861 -31.199 77.324 -31.199 Z M77.465 33.301 Q63.134 33.301 50.678 27.967 Q38.221 22.631 28.88 13.29 Q19.539 3.949 14.203 -8.498 Q8.869 -20.945 8.869 -35.288 Q8.869 -49.633 14.203 -62.102 Q19.539 -74.57 28.854 -83.84 Q38.169 -93.109 50.628 -98.516 Q63.087 -103.922 77.445 -103.922 Q91.803 -103.922 104.292 -98.529 Q116.779 -93.133 126.036 -83.886 Q135.294 -74.638 140.692 -62.138 Q146.093 -49.636 146.093 -35.274 Q146.093 -20.921 140.686 -8.466 Q135.279 3.989 126.01 13.28 Q116.74 22.572 104.269 27.936 Q91.796 33.301 77.465 33.301 Z M77.45 18.144 Q99.975 18.144 115.374 2.694 Q130.774 -12.755 130.774 -35.28 Q130.774 -57.805 115.402 -73.204 Q100.031 -88.604 77.506 -88.604 Q54.981 -88.604 39.505 -73.232 Q24.026 -57.861 24.026 -35.336 Q24.026 -12.811 39.476 2.665 Q54.925 18.144 77.45 18.144 Z"/></g><g id="Semibold-L" transform="matrix(1 0 0 1 1970.27 1556)"><path d="M49.405 -7.235  93.125 -19.344  105.233 -63.063  61.514 -50.955  49.405 -7.235 Z M77.34 -30.147 Q75.297 -30.147 73.807 -31.697 Q72.317 -33.245 72.317 -35.29 Q72.317 -37.333 73.867 -38.823 Q75.415 -40.313 77.46 -40.313 Q79.503 -40.313 80.993 -38.763 Q82.483 -37.215 82.483 -35.17 Q82.483 -33.127 80.933 -31.637 Q79.385 -30.147 77.34 -30.147 Z M77.455 31.548 Q63.555 31.548 51.413 26.326 Q39.271 21.101 30.17 12 Q21.069 2.899 15.844 -9.241 Q10.622 -21.383 10.622 -35.298 Q10.622 -49.212 15.844 -61.367 Q21.069 -73.52 30.155 -82.546 Q39.242 -91.571 51.39 -96.836 Q63.539 -102.1 77.46 -102.1 Q91.382 -102.1 103.547 -96.842 Q115.713 -91.585 124.73 -82.571 Q133.749 -73.559 139.009 -61.375 Q144.27 -49.191 144.27 -35.274 Q144.27 -21.359 139.006 -9.219 Q133.741 2.922 124.716 11.982 Q115.69 21.041 103.524 26.295 Q91.356 31.548 77.455 31.548 Z M77.463 18.774 Q100.115 18.774 115.76 3.067 Q131.404 -12.639 131.404 -35.293 Q131.404 -57.945 115.776 -73.59 Q100.148 -89.234 77.494 -89.234 Q54.841 -89.234 39.118 -73.606 Q23.396 -57.978 23.396 -35.324 Q23.396 -12.671 39.103 3.052 Q54.809 18.774 77.463 18.774 Z"/></g><g id="Medium-L" transform="matrix(1 0 0 1 1674.31 1556)"><path d="M49.089 -6.919  92.704 -19.765  105.549 -63.379  61.935 -50.534  49.089 -6.919 Z M77.353 -29.359 Q74.928 -29.359 73.228 -31.105 Q71.529 -32.853 71.529 -35.277 Q71.529 -37.702 73.275 -39.402 Q75.023 -41.101 77.447 -41.101 Q79.872 -41.101 81.572 -39.355 Q83.271 -37.607 83.271 -35.183 Q83.271 -32.758 81.525 -31.058 Q79.777 -29.359 77.353 -29.359 Z M77.448 30.234 Q63.871 30.234 51.964 25.094 Q40.058 19.953 31.137 11.033 Q22.217 2.112 17.076 -9.801 Q11.936 -21.714 11.936 -35.306 Q11.936 -48.896 17.076 -60.816 Q22.217 -72.734 31.131 -81.575 Q40.045 -90.418 51.961 -95.575 Q63.878 -100.733 77.473 -100.733 Q91.066 -100.733 102.99 -95.578 Q114.913 -90.423 123.751 -81.586 Q132.591 -72.75 137.746 -60.804 Q142.903 -48.859 142.903 -35.274 Q142.903 -21.69 137.745 -9.785 Q132.588 2.122 123.745 11.008 Q114.904 19.893 102.965 25.065 Q91.026 30.234 77.448 30.234 Z M77.471 19.248 Q100.22 19.248 116.048 3.347 Q131.878 -12.553 131.878 -35.301 Q131.878 -58.05 116.056 -73.878 Q100.235 -89.708 77.485 -89.708 Q54.736 -89.708 38.829 -73.886 Q22.922 -58.065 22.922 -35.315 Q22.922 -12.566 38.823 3.341 Q54.723 19.248 77.471 19.248 Z"/></g><g id="Regular-L" transform="matrix(1 0 0 1 1378.56 1556)"><path d="M48.859 -6.689  92.396 -20.072  105.78 -63.61  62.242 -50.226  48.859 -6.689 Z M77.361 -28.78 Q74.659 -28.78 72.804 -30.673 Q70.95 -32.565 70.95 -35.269 Q70.95 -37.971 72.843 -39.826 Q74.735 -41.68 77.439 -41.68 Q80.141 -41.68 81.996 -39.787 Q83.85 -37.895 83.85 -35.191 Q83.85 -32.489 81.957 -30.634 Q80.065 -28.78 77.361 -28.78 Z M77.444 29.27 Q64.102 29.27 52.369 24.191 Q40.635 19.111 31.847 10.323 Q23.059 1.535 17.979 -10.21 Q12.9 -21.956 12.9 -35.311 Q12.9 -48.665 17.979 -60.411 Q23.059 -72.156 31.847 -80.864 Q40.635 -89.571 52.38 -94.651 Q64.126 -99.73 77.481 -99.73 Q90.835 -99.73 102.581 -94.651 Q114.326 -89.571 123.034 -80.864 Q131.741 -72.156 136.821 -60.385 Q141.9 -48.614 141.9 -35.274 Q141.9 -21.932 136.821 -10.199 Q131.741 1.535 123.034 10.294 Q114.326 19.052 102.555 24.162 Q90.784 29.27 77.444 29.27 Z M77.479 19.595 Q100.297 19.595 116.261 3.552 Q132.225 -12.489 132.225 -35.309 Q132.225 -58.127 116.261 -74.091 Q100.297 -90.055 77.479 -90.055 Q54.659 -90.055 38.618 -74.091 Q22.575 -58.127 22.575 -35.309 Q22.575 -12.489 38.618 3.552 Q54.659 19.595 77.479 19.595 Z"/></g><g id="Light-L" transform="matrix(1 0 0 1 1082.77 1556)"><path d="M50.844 -8.674  90.969 -21.561  103.858 -61.688  63.731 -48.799  50.844 -8.674 Z M77.347 -29.152 Q74.844 -29.152 73.083 -30.967 Q71.322 -32.781 71.322 -35.283 Q71.322 -37.786 73.137 -39.547 Q74.951 -41.308 77.453 -41.308 Q79.956 -41.308 81.717 -39.493 Q83.478 -37.679 83.478 -35.177 Q83.478 -32.674 81.663 -30.913 Q79.849 -29.152 77.347 -29.152 Z M77.453 26.045 Q64.723 26.045 53.574 21.22 Q42.426 16.396 34.103 8.075 Q25.779 -0.245 20.951 -11.4 Q16.125 -22.554 16.125 -35.299 Q16.125 -47.983 20.95 -59.143 Q25.774 -70.303 34.095 -78.577 Q42.415 -86.851 53.57 -91.679 Q64.724 -96.505 77.469 -96.505 Q90.153 -96.505 101.313 -91.68 Q112.473 -86.856 120.747 -78.585 Q129.021 -70.315 133.849 -59.134 Q138.675 -47.953 138.675 -35.283 Q138.675 -22.553 133.85 -11.404 Q129.026 -0.256 120.755 8.038 Q112.485 16.331 101.304 21.188 Q90.123 26.045 77.453 26.045 Z M77.479 18.726 Q99.925 18.726 115.64 2.964 Q131.356 -12.799 131.356 -35.309 Q131.356 -57.755 115.64 -73.47 Q99.925 -89.186 77.479 -89.186 Q54.969 -89.186 39.206 -73.47 Q23.444 -57.755 23.444 -35.309 Q23.444 -12.799 39.206 2.964 Q54.969 18.726 77.479 18.726 Z"/></g><g id="Thin-L" transform="matrix(1 0 0 1 787.282 1556)"><path d="M52.829 -10.659  89.544 -23.049  101.934 -59.764  65.219 -47.374  52.829 -10.659 Z M77.332 -29.525 Q75.031 -29.525 73.362 -31.26 Q71.695 -32.995 71.695 -35.298 Q71.695 -37.599 73.43 -39.268 Q75.165 -40.935 77.468 -40.935 Q79.769 -40.935 81.438 -39.2 Q83.105 -37.465 83.105 -35.162 Q83.105 -32.861 81.37 -31.192 Q79.635 -29.525 77.332 -29.525 Z M77.465 22.82 Q65.342 22.82 54.78 18.25 Q44.218 13.68 36.357 5.827 Q28.498 -2.024 23.925 -12.589 Q19.35 -23.154 19.35 -35.29 Q19.35 -47.301 23.92 -57.876 Q28.49 -68.449 36.343 -76.291 Q44.194 -84.132 54.759 -88.705 Q65.324 -93.28 77.46 -93.28 Q89.471 -93.28 100.046 -88.71 Q110.619 -84.14 118.461 -76.307 Q126.302 -68.473 130.875 -57.882 Q135.45 -47.293 135.45 -35.294 Q135.45 -23.172 130.88 -12.61 Q126.31 -2.048 118.477 5.782 Q110.643 13.613 100.052 18.216 Q89.463 22.82 77.465 22.82 Z M77.479 17.858 Q99.553 17.858 115.021 2.375 Q130.488 -13.11 130.488 -35.309 Q130.488 -57.383 115.021 -72.851 Q99.553 -88.318 77.479 -88.318 Q55.28 -88.318 39.795 -72.851 Q24.312 -57.383 24.312 -35.309 Q24.312 -13.11 39.795 2.375 Q55.28 17.858 77.479 17.858 Z"/></g><g id="Ultralight-L" transform="matrix(1 0 0 1 491.205 1556)"><path d="M54.019 -11.849  88.688 -23.942  100.781 -58.611  66.112 -46.517  54.019 -11.849 Z M77.324 -29.747 Q75.142 -29.747 73.53 -31.436 Q71.918 -33.124 71.918 -35.306 Q71.918 -37.487 73.606 -39.1 Q75.294 -40.712 77.476 -40.712 Q79.657 -40.712 81.27 -39.024 Q82.883 -37.336 82.883 -35.154 Q82.883 -32.972 81.194 -31.36 Q79.506 -29.747 77.324 -29.747 Z M77.471 20.885 Q65.714 20.885 55.504 16.468 Q45.292 12.052 37.712 4.479 Q30.13 -3.093 25.708 -13.302 Q21.285 -23.512 21.285 -35.283 Q21.285 -46.892 25.702 -57.115 Q30.118 -67.338 37.691 -74.918 Q45.263 -82.5 55.472 -86.922 Q65.682 -91.345 77.453 -91.345 Q89.062 -91.345 99.285 -86.928 Q109.508 -82.512 117.088 -74.939 Q124.67 -67.367 129.092 -57.133 Q133.515 -46.896 133.515 -35.301 Q133.515 -23.544 129.098 -13.334 Q124.682 -3.122 117.109 4.429 Q109.537 11.981 99.303 16.433 Q89.066 20.885 77.471 20.885 Z M77.479 17.338 Q99.33 17.338 114.649 2.02 Q129.968 -13.295 129.968 -35.309 Q129.968 -57.16 114.649 -72.479 Q99.33 -87.797 77.479 -87.797 Q55.465 -87.797 40.15 -72.479 Q24.832 -57.16 24.832 -35.309 Q24.832 -13.295 40.15 2.02 Q55.465 17.338 77.479 17.338 Z"/></g><g id="Bold-M" transform="matrix(1 0 0 1 2281.8 1126)"><path d="M38.5 -13.73  73.875 -21.355  81.5 -56.73  46.125 -49.105  38.5 -13.73 Z M59.97 -30.23 Q57.875 -30.23 56.438 -31.697 Q55 -33.164 55 -35.26 Q55 -37.355 56.468 -38.792 Q57.934 -40.23 60.03 -40.23 Q62.125 -40.23 63.562 -38.762 Q65 -37.296 65 -35.2 Q65 -33.105 63.532 -31.667 Q62.066 -30.23 59.97 -30.23 Z M60 19.02 Q48.625 19.02 38.751 14.76 Q28.879 10.499 21.575 3.195 Q14.271 -4.109 10.01 -13.981 Q5.75 -23.855 5.75 -35.23 Q5.75 -46.605 10.01 -56.479 Q14.271 -66.351 21.575 -73.655 Q28.879 -80.959 38.751 -85.22 Q48.625 -89.48 60 -89.48 Q71.375 -89.48 81.249 -85.22 Q91.121 -80.959 98.425 -73.655 Q105.729 -66.351 109.99 -56.479 Q114.25 -46.605 114.25 -35.23 Q114.25 -23.855 109.99 -13.981 Q105.729 -4.109 98.425 3.195 Q91.121 10.499 81.249 14.76 Q71.375 19.02 60 19.02 Z M60 3.27 Q76.25 3.27 87.375 -7.855 Q98.5 -18.98 98.5 -35.23 Q98.5 -51.48 87.375 -62.605 Q76.25 -73.73 60 -73.73 Q43.75 -73.73 32.625 -62.605 Q21.5 -51.48 21.5 -35.23 Q21.5 -18.98 32.625 -7.855 Q43.75 3.27 60 3.27 Z"/></g><g id="Semibold-M" transform="matrix(1 0 0 1 1985.97 1126)"><path d="M38.065 -13.295  73.278 -21.952  81.935 -57.165  46.722 -48.507  38.065 -13.295 Z M59.984 -29.142 Q57.44 -29.142 55.676 -30.924 Q53.913 -32.704 53.913 -35.246 Q53.913 -37.79 55.694 -39.554 Q57.474 -41.317 60.016 -41.317 Q62.56 -41.317 64.324 -39.536 Q66.088 -37.756 66.088 -35.214 Q66.088 -32.67 64.306 -30.906 Q62.526 -29.142 59.984 -29.142 Z M60 17.173 Q49.06 17.173 39.511 13.053 Q29.964 8.933 22.901 1.869 Q15.838 -5.194 11.717 -14.741 Q7.598 -24.29 7.598 -35.23 Q7.598 -46.17 11.717 -55.719 Q15.838 -65.266 22.901 -72.329 Q29.964 -79.392 39.511 -83.512 Q49.06 -87.632 60 -87.632 Q70.94 -87.632 80.489 -83.512 Q90.036 -79.392 97.099 -72.329 Q104.162 -65.266 108.282 -55.719 Q112.403 -46.17 112.403 -35.23 Q112.403 -24.29 108.282 -14.741 Q104.162 -5.194 97.099 1.869 Q90.036 8.933 80.489 13.053 Q70.94 17.173 60 17.173 Z M60 3.923 Q76.412 3.923 87.782 -7.447 Q99.153 -18.817 99.153 -35.23 Q99.153 -51.642 87.782 -63.012 Q76.412 -74.382 60 -74.382 Q43.587 -74.382 32.218 -63.012 Q20.848 -51.642 20.848 -35.23 Q20.848 -18.817 32.218 -7.447 Q43.587 3.923 60 3.923 Z"/></g><g id="Medium-M" transform="matrix(1 0 0 1 1689.91 1126)"><path d="M37.739 -12.969  72.829 -22.401  82.261 -57.491  47.171 -48.059  37.739 -12.969 Z M59.992 -28.327 Q57.114 -28.327 55.106 -30.342 Q53.097 -32.359 53.097 -35.237 Q53.097 -38.116 55.112 -40.124 Q57.129 -42.132 60.008 -42.132 Q62.886 -42.132 64.894 -40.117 Q66.903 -38.101 66.903 -35.222 Q66.903 -32.344 64.888 -30.336 Q62.871 -28.327 59.992 -28.327 Z M60 15.786 Q49.386 15.786 40.083 11.771 Q30.777 7.756 23.895 0.875 Q17.014 -6.007 12.999 -15.312 Q8.984 -24.616 8.984 -35.23 Q8.984 -45.844 12.999 -55.147 Q17.014 -64.452 23.895 -71.335 Q30.777 -78.216 40.083 -82.231 Q49.386 -86.246 60 -86.246 Q70.614 -86.246 79.918 -82.231 Q89.222 -78.216 96.105 -71.335 Q102.986 -64.452 107.001 -55.147 Q111.016 -45.844 111.016 -35.23 Q111.016 -24.616 107.001 -15.312 Q102.986 -6.007 96.105 0.875 Q89.222 7.756 79.918 11.771 Q70.614 15.786 60 15.786 Z M60 4.411 Q76.535 4.411 88.089 -7.141 Q99.641 -18.695 99.641 -35.23 Q99.641 -51.765 88.089 -63.319 Q76.535 -74.871 60 -74.871 Q43.465 -74.871 31.911 -63.319 Q20.359 -51.765 20.359 -35.23 Q20.359 -18.695 31.911 -7.141 Q43.465 4.411 60 4.411 Z"/></g><g id="Regular-M" transform="matrix(1 0 0 1 1394.06 1126)"><path d="M37.5 -12.73  72.5 -22.73  82.5 -57.73  47.5 -47.73  37.5 -12.73 Z M60 -27.73 Q56.875 -27.73 54.688 -29.917 Q52.5 -32.105 52.5 -35.23 Q52.5 -38.355 54.688 -40.542 Q56.875 -42.73 60 -42.73 Q63.125 -42.73 65.312 -40.542 Q67.5 -38.355 67.5 -35.23 Q67.5 -32.105 65.312 -29.917 Q63.125 -27.73 60 -27.73 Z M60 14.77 Q49.625 14.77 40.5 10.833 Q31.375 6.895 24.625 0.145 Q17.875 -6.605 13.938 -15.73 Q10 -24.855 10 -35.23 Q10 -45.605 13.938 -54.73 Q17.875 -63.855 24.625 -70.605 Q31.375 -77.355 40.5 -81.292 Q49.625 -85.23 60 -85.23 Q70.375 -85.23 79.5 -81.292 Q88.625 -77.355 95.375 -70.605 Q102.125 -63.855 106.062 -54.73 Q110 -45.605 110 -35.23 Q110 -24.855 106.062 -15.73 Q102.125 -6.605 95.375 0.145 Q88.625 6.895 79.5 10.833 Q70.375 14.77 60 14.77 Z M60 4.77 Q76.625 4.77 88.312 -6.917 Q100 -18.605 100 -35.23 Q100 -51.855 88.312 -63.542 Q76.625 -75.23 60 -75.23 Q43.375 -75.23 31.688 -63.542 Q20 -51.855 20 -35.23 Q20 -18.605 31.688 -6.917 Q43.375 4.77 60 4.77 Z"/></g><g id="Light-M" transform="matrix(1 0 0 1 1098.18 1126)"><path d="M39.135 -14.365  71.154 -24.076  80.865 -56.095  48.846 -46.384  39.135 -14.365 Z M59.989 -28.691 Q57.26 -28.691 55.361 -30.602 Q53.461 -32.512 53.461 -35.241 Q53.461 -37.97 55.373 -39.869 Q57.282 -41.769 60.011 -41.769 Q62.74 -41.769 64.639 -39.857 Q66.539 -37.947 66.539 -35.219 Q66.539 -32.49 64.627 -30.591 Q62.718 -28.691 59.989 -28.691 Z M60.009 12.27 Q50.154 12.27 41.483 8.53 Q32.811 4.79 26.398 -1.621 Q19.984 -8.032 16.241 -16.7 Q12.5 -25.367 12.5 -35.221 Q12.5 -45.076 16.24 -53.747 Q19.98 -62.419 26.391 -68.832 Q32.803 -75.246 41.47 -78.989 Q50.138 -82.73 59.991 -82.73 Q69.846 -82.73 78.517 -78.99 Q87.189 -75.25 93.603 -68.839 Q100.016 -62.427 103.759 -53.76 Q107.5 -45.092 107.5 -35.239 Q107.5 -25.384 103.76 -16.712 Q100.02 -8.041 93.609 -1.627 Q87.198 4.786 78.53 8.529 Q69.862 12.27 60.009 12.27 Z M60 4.77 Q76.672 4.77 88.336 -6.894 Q100 -18.557 100 -35.23 Q100 -51.902 88.336 -63.566 Q76.672 -75.23 60 -75.23 Q43.328 -75.23 31.664 -63.566 Q20 -51.902 20 -35.23 Q20 -18.557 31.664 -6.894 Q43.328 4.77 60 4.77 Z"/></g><g id="Thin-M" transform="matrix(1 0 0 1 802.565 1126)"><path d="M40.769 -15.999  69.808 -25.422  79.231 -54.461  50.193 -45.037  40.769 -15.999 Z M59.977 -29.652 Q57.644 -29.652 56.034 -31.286 Q54.422 -32.92 54.422 -35.252 Q54.422 -37.586 56.056 -39.196 Q57.69 -40.807 60.023 -40.807 Q62.356 -40.807 63.966 -39.174 Q65.578 -37.54 65.578 -35.207 Q65.578 -32.874 63.944 -31.264 Q62.31 -29.652 59.977 -29.652 Z M60.016 9.77 Q50.682 9.77 42.465 6.228 Q34.249 2.685 28.17 -3.387 Q22.091 -9.46 18.546 -17.67 Q15 -25.879 15 -35.214 Q15 -44.547 18.543 -52.765 Q22.085 -60.981 28.157 -67.06 Q34.23 -73.139 42.44 -76.684 Q50.649 -80.23 59.984 -80.23 Q69.317 -80.23 77.535 -76.687 Q85.751 -73.145 91.83 -67.072 Q97.909 -61 101.454 -52.79 Q105 -44.581 105 -35.246 Q105 -25.912 101.457 -17.695 Q97.915 -9.479 91.843 -3.4 Q85.77 2.679 77.56 6.224 Q69.351 9.77 60.016 9.77 Z M60 4.77 Q76.721 4.77 88.36 -6.87 Q100 -18.509 100 -35.23 Q100 -51.951 88.36 -63.59 Q76.721 -75.23 60 -75.23 Q43.279 -75.23 31.64 -63.59 Q20 -51.951 20 -35.23 Q20 -18.509 31.64 -6.87 Q43.279 4.77 60 4.77 Z"/></g><g id="Ultralight-M" transform="matrix(1 0 0 1 506.415 1126)"><path d="M41.75 -16.98  69 -26.23  78.25 -53.48  51 -44.23  41.75 -16.98 Z M59.97 -30.23 Q57.875 -30.23 56.438 -31.697 Q55 -33.164 55 -35.26 Q55 -37.355 56.468 -38.792 Q57.934 -40.23 60.03 -40.23 Q62.125 -40.23 63.562 -38.762 Q65 -37.296 65 -35.2 Q65 -33.105 63.532 -31.667 Q62.066 -30.23 59.97 -30.23 Z M60.021 8.27 Q51 8.27 43.055 4.846 Q35.11 1.423 29.234 -4.447 Q23.356 -10.317 19.929 -18.251 Q16.5 -26.186 16.5 -35.209 Q16.5 -44.23 19.924 -52.175 Q23.348 -60.12 29.218 -65.996 Q35.087 -71.874 43.021 -75.301 Q50.956 -78.73 59.979 -78.73 Q69 -78.73 76.945 -75.306 Q84.89 -71.882 90.766 -66.012 Q96.644 -60.142 100.071 -52.209 Q103.5 -44.274 103.5 -35.251 Q103.5 -26.23 100.076 -18.285 Q96.653 -10.34 90.782 -4.464 Q84.912 1.414 76.979 4.841 Q69.044 8.27 60.021 8.27 Z M60 4.77 Q76.75 4.77 88.375 -6.855 Q100 -18.48 100 -35.23 Q100 -51.98 88.375 -63.605 Q76.75 -75.23 60 -75.23 Q43.25 -75.23 31.625 -63.605 Q20 -51.98 20 -35.23 Q20 -18.48 31.625 -6.855 Q43.25 4.77 60 4.77 Z"/></g><g id="Bold-S" transform="matrix(1 0 0 1 2294.23 696)"><path d="M31.56 -19.45  57.893 -24.677  63.12 -51.01  36.787 -45.783  31.56 -19.45 Z M47.316 -32.468 Q46.157 -32.37 45.367 -33.232 Q44.579 -34.093 44.579 -35.254 Q44.579 -36.413 45.391 -37.202 Q46.203 -37.991 47.364 -37.991 Q48.524 -37.991 49.312 -37.179 Q50.102 -36.367 50.102 -35.206 Q50.102 -34.046 49.289 -33.257 Q48.477 -32.468 47.316 -32.468 Z M47.368 5.995 Q38.76 5.995 31.265 2.782 Q23.772 -0.432 18.157 -6.047 Q12.542 -11.662 9.328 -19.151 Q6.115 -26.642 6.115 -35.275 Q6.115 -43.909 9.328 -51.354 Q12.542 -58.798 18.157 -64.413 Q23.772 -70.028 31.261 -73.242 Q38.752 -76.455 47.385 -76.455 Q56.019 -76.455 63.464 -73.242 Q70.908 -70.028 76.523 -64.413 Q82.138 -58.798 85.352 -51.332 Q88.565 -43.865 88.565 -35.258 Q88.565 -26.65 85.352 -19.155 Q82.138 -11.662 76.523 -6.047 Q70.908 -0.432 63.442 2.782 Q55.975 5.995 47.368 5.995 Z M47.363 -5.642 Q59.865 -5.642 68.396 -14.196 Q76.928 -22.75 76.928 -35.253 Q76.928 -47.755 68.374 -56.286 Q59.82 -64.817 47.317 -64.817 Q34.815 -64.817 26.284 -56.264 Q17.753 -47.71 17.753 -35.207 Q17.753 -22.705 26.306 -14.174 Q34.86 -5.642 47.363 -5.642 Z"/></g><g id="Semibold-S" transform="matrix(1 0 0 1 1998.1 696)"><path d="M31.217 -19.107  57.421 -25.149  63.463 -51.353  37.259 -45.311  31.217 -19.107 Z M47.327 -31.61 Q45.813 -31.512 44.767 -32.621 Q43.72 -33.73 43.72 -35.243 Q43.72 -36.757 44.781 -37.803 Q45.84 -38.85 47.353 -38.85 Q48.867 -38.85 49.913 -37.789 Q50.96 -36.73 50.96 -35.217 Q50.96 -33.703 49.899 -32.657 Q48.84 -31.61 47.327 -31.61 Z M47.368 4.538 Q39.103 4.538 31.865 1.435 Q24.628 -1.668 19.203 -7.093 Q13.778 -12.518 10.675 -19.751 Q7.572 -26.984 7.572 -35.275 Q7.572 -43.566 10.675 -50.755 Q13.778 -57.942 19.203 -63.367 Q24.628 -68.792 31.861 -71.895 Q39.094 -74.998 47.385 -74.998 Q55.676 -74.998 62.865 -71.895 Q70.052 -68.792 75.477 -63.367 Q80.902 -57.942 84.005 -50.732 Q87.108 -43.521 87.108 -35.258 Q87.108 -26.993 84.005 -19.755 Q80.902 -12.518 75.477 -7.093 Q70.052 -1.668 62.842 1.435 Q55.631 4.538 47.368 4.538 Z M47.363 -5.128 Q59.994 -5.128 68.718 -13.875 Q77.442 -22.621 77.442 -35.253 Q77.442 -47.884 68.695 -56.608 Q59.949 -65.332 47.317 -65.332 Q34.686 -65.332 25.962 -56.585 Q17.238 -47.839 17.238 -35.207 Q17.238 -22.576 25.985 -13.852 Q34.731 -5.128 47.363 -5.128 Z"/></g><g id="Medium-S" transform="matrix(1 0 0 1 1701.85 696)"><path d="M30.959 -18.849  57.067 -25.503  63.721 -51.611  37.613 -44.957  30.959 -18.849 Z M47.334 -30.967 Q45.556 -30.869 44.317 -32.163 Q43.077 -33.458 43.077 -35.236 Q43.077 -37.014 44.322 -38.253 Q45.568 -39.493 47.346 -39.493 Q49.124 -39.493 50.363 -38.248 Q51.603 -37.002 51.603 -35.224 Q51.603 -33.446 50.358 -32.207 Q49.112 -30.967 47.334 -30.967 Z M47.368 3.444 Q39.36 3.444 32.315 0.424 Q25.27 -2.596 19.987 -7.877 Q14.706 -13.16 11.686 -20.201 Q8.666 -27.241 8.666 -35.275 Q8.666 -43.308 11.686 -50.304 Q14.706 -57.3 19.987 -62.583 Q25.27 -67.864 32.311 -70.884 Q39.351 -73.904 47.385 -73.904 Q55.418 -73.904 62.414 -70.884 Q69.41 -67.864 74.693 -62.583 Q79.974 -57.3 82.994 -50.282 Q86.014 -43.264 86.014 -35.258 Q86.014 -27.25 82.994 -20.205 Q79.974 -13.16 74.693 -7.877 Q69.41 -2.596 62.392 0.424 Q55.374 3.444 47.368 3.444 Z M47.363 -4.742 Q60.09 -4.742 68.96 -13.633 Q77.828 -22.525 77.828 -35.253 Q77.828 -47.98 68.937 -56.85 Q60.045 -65.718 47.317 -65.718 Q34.59 -65.718 25.72 -56.827 Q16.852 -47.935 16.852 -35.207 Q16.852 -22.48 25.743 -13.61 Q34.635 -4.742 47.363 -4.742 Z"/></g><g id="Regular-S" transform="matrix(1 0 0 1 1405.73 696)"><path d="M30.771 -18.661  56.808 -25.762  63.909 -51.799  37.872 -44.698  30.771 -18.661 Z M47.34 -30.496 Q45.367 -30.397 43.987 -31.827 Q42.606 -33.257 42.606 -35.23 Q42.606 -37.202 43.987 -38.583 Q45.367 -39.964 47.34 -39.964 Q49.312 -39.964 50.693 -38.583 Q52.074 -37.202 52.074 -35.23 Q52.074 -33.257 50.693 -31.877 Q49.312 -30.496 47.34 -30.496 Z M47.368 2.642 Q39.549 2.642 32.645 -0.317 Q25.741 -3.275 20.563 -8.453 Q15.386 -13.631 12.427 -20.531 Q9.468 -27.431 9.468 -35.275 Q9.468 -43.12 12.427 -49.974 Q15.386 -56.829 20.563 -62.007 Q25.741 -67.184 32.641 -70.143 Q39.541 -73.102 47.385 -73.102 Q55.23 -73.102 62.084 -70.143 Q68.939 -67.184 74.117 -62.007 Q79.294 -56.829 82.253 -49.953 Q85.212 -43.076 85.212 -35.258 Q85.212 -27.439 82.253 -20.535 Q79.294 -13.631 74.117 -8.453 Q68.939 -3.275 62.063 -0.317 Q55.186 2.642 47.368 2.642 Z M47.363 -4.459 Q60.161 -4.459 69.136 -13.457 Q78.111 -22.454 78.111 -35.253 Q78.111 -48.051 69.113 -57.026 Q60.116 -66.001 47.317 -66.001 Q34.519 -66.001 25.544 -57.003 Q16.569 -48.006 16.569 -35.207 Q16.569 -22.409 25.567 -13.434 Q34.564 -4.459 47.363 -4.459 Z"/></g><g id="Light-S" transform="matrix(1 0 0 1 1109.75 696)"><path d="M32.061 -19.951  55.746 -26.824  62.619 -50.509  38.934 -43.636  32.061 -19.951 Z M47.331 -31.254 Q45.671 -31.156 44.518 -32.368 Q43.364 -33.579 43.364 -35.239 Q43.364 -36.899 44.527 -38.052 Q45.689 -39.206 47.349 -39.206 Q49.009 -39.206 50.162 -38.043 Q51.316 -36.881 51.316 -35.221 Q51.316 -33.561 50.153 -32.408 Q48.991 -31.254 47.331 -31.254 Z M47.374 0.67 Q39.966 0.67 33.42 -2.133 Q26.874 -4.936 21.962 -9.847 Q17.049 -14.757 14.244 -21.296 Q11.441 -27.834 11.441 -35.268 Q11.441 -42.703 14.243 -49.199 Q17.046 -55.696 21.957 -60.608 Q26.867 -65.521 33.406 -68.326 Q39.944 -71.129 47.378 -71.129 Q54.813 -71.129 61.309 -68.327 Q67.806 -65.524 72.718 -60.613 Q77.631 -55.703 80.436 -49.187 Q83.24 -42.671 83.24 -35.264 Q83.24 -27.856 80.437 -21.31 Q77.634 -14.764 72.723 -9.852 Q67.813 -4.939 61.297 -2.134 Q54.781 0.67 47.374 0.67 Z M47.363 -4.459 Q60.199 -4.459 69.155 -13.438 Q78.111 -22.416 78.111 -35.253 Q78.111 -48.089 69.132 -57.045 Q60.154 -66.001 47.317 -66.001 Q34.481 -66.001 25.525 -57.022 Q16.569 -48.044 16.569 -35.207 Q16.569 -22.371 25.548 -13.415 Q34.526 -4.459 47.363 -4.459 Z"/></g><g id="Thin-S" transform="matrix(1 0 0 1 814.015 696)"><path d="M33.35 -21.24  54.684 -27.886  61.33 -49.22  39.996 -42.574  33.35 -21.24 Z M47.322 -32.013 Q45.974 -31.914 45.049 -32.907 Q44.123 -33.901 44.123 -35.248 Q44.123 -36.596 45.067 -37.521 Q46.011 -38.447 47.358 -38.447 Q48.706 -38.447 49.631 -37.503 Q50.557 -36.559 50.557 -35.212 Q50.557 -33.864 49.613 -32.939 Q48.669 -32.013 47.322 -32.013 Z M47.38 -1.303 Q40.383 -1.303 34.195 -3.95 Q28.009 -6.597 23.36 -11.24 Q18.712 -15.884 16.063 -22.062 Q13.413 -28.238 13.413 -35.262 Q13.413 -42.286 16.06 -48.424 Q18.707 -54.561 23.35 -59.21 Q27.994 -63.858 34.172 -66.507 Q40.348 -69.157 47.372 -69.157 Q54.396 -69.157 60.534 -66.51 Q66.671 -63.863 71.32 -59.22 Q75.968 -54.576 78.617 -48.422 Q81.267 -42.268 81.267 -35.27 Q81.267 -28.273 78.62 -22.085 Q75.973 -15.899 71.33 -11.25 Q66.686 -6.602 60.532 -3.953 Q54.378 -1.303 47.38 -1.303 Z M47.363 -4.459 Q60.237 -4.459 69.174 -13.418 Q78.111 -22.378 78.111 -35.253 Q78.111 -48.127 69.152 -57.064 Q60.192 -66.001 47.317 -66.001 Q34.443 -66.001 25.506 -57.042 Q16.569 -48.082 16.569 -35.207 Q16.569 -22.333 25.528 -13.396 Q34.488 -4.459 47.363 -4.459 Z"/></g><g id="Ultralight-S" transform="matrix(1 0 0 1 517.792 696)"><path d="M34.124 -22.014  54.047 -28.523  60.556 -48.446  40.634 -41.936  34.124 -22.014 Z M47.316 -32.468 Q46.157 -32.37 45.367 -33.232 Q44.579 -34.093 44.579 -35.254 Q44.579 -36.413 45.391 -37.202 Q46.203 -37.991 47.364 -37.991 Q48.524 -37.991 49.312 -37.179 Q50.102 -36.367 50.102 -35.206 Q50.102 -34.046 49.289 -33.257 Q48.477 -32.468 47.316 -32.468 Z M47.384 -2.486 Q40.634 -2.486 34.661 -5.04 Q28.688 -7.593 24.2 -12.077 Q19.71 -16.56 17.154 -22.52 Q14.597 -28.481 14.597 -35.258 Q14.597 -42.035 17.15 -47.959 Q19.703 -53.882 24.187 -58.37 Q28.67 -62.86 34.63 -65.416 Q40.591 -67.973 47.368 -67.973 Q54.145 -67.973 60.069 -65.42 Q65.992 -62.867 70.48 -58.383 Q74.97 -53.9 77.526 -47.962 Q80.084 -42.025 80.084 -35.274 Q80.084 -28.523 77.53 -22.551 Q74.977 -16.578 70.493 -12.09 Q66.01 -7.6 60.072 -5.044 Q54.135 -2.486 47.384 -2.486 Z M47.363 -4.459 Q60.26 -4.459 69.185 -13.407 Q78.111 -22.355 78.111 -35.253 Q78.111 -48.15 69.163 -57.075 Q60.215 -66.001 47.317 -66.001 Q34.42 -66.001 25.495 -57.053 Q16.569 -48.105 16.569 -35.207 Q16.569 -22.31 25.517 -13.385 Q34.465 -4.459 47.363 -4.459 Z"/></g></g></svg>