<svg xmlns="http://www.w3.org/2000/svg" version="1.1" width="3300" height="2000"><g id="Notes"><style>
    text {
      font-family: monospace;
      text-anchor: middle;
    }
    text.emphasis {
      font-weight:bold;
    }
    text.lanchor {
      text-anchor: start;
    }
  </style><rect height="2200" id="artboard" fill="white" width="3300" x="0" y="0"/><line id="" style="fill:none;stroke:black;stroke-width:0.5;" x1="263" x2="3036" y1="292" y2="292"/><text class="lanchor emphasis" transform="matrix(1 0 0 1 263 322)">Weight/Scale Variations</text><text transform="matrix(1 0 0 1 559.711 322)">Ultralight</text><text transform="matrix(1 0 0 1 856.422 322)">Thin</text><text transform="matrix(1 0 0 1 1153.13 322)">Light</text><text transform="matrix(1 0 0 1 1449.84 322)">Regular</text><text transform="matrix(1 0 0 1 1746.56 322)">Medium</text><text transform="matrix(1 0 0 1 2043.27 322)">Semibold</text><text transform="matrix(1 0 0 1 2339.98 322)">Bold</text><text transform="matrix(1 0 0 1 2636.69 322)">Heavy</text><text transform="matrix(1 0 0 1 2933.4 322)">Black</text><text id="template-version" style="text-anchor: end;" transform="matrix(1 0 0 1 3036 1933)">Template v.1.0</text><text class="lanchor" transform="matrix(1 0 0 1 263 726)">Small</text><text class="lanchor" transform="matrix(1 0 0 1 263 1156)">Medium</text><text class="lanchor" transform="matrix(1 0 0 1 263 1586)">Large</text></g><g id="Guides"><g id="H-reference" style="fill:#27AAE1;stroke:none;" transform="matrix(1 0 0 1 339 696)"><path d="M 54.9316 0 L 57.666 0 L 30.5664 -70.459 L 28.0762 -70.459 L 0.976562 0 L 3.66211 0 L 12.9395 -24.4629 L 45.7031 -24.4629 Z M 29.1992 -67.0898 L 29.4434 -67.0898 L 44.8242 -26.709 L 13.8184 -26.709 Z"/></g><line id="Baseline-S" style="fill:none;stroke:#27AAE1;opacity:1;stroke-width:0.577;" x1="263" x2="3036" y1="696" y2="696"/><line id="Capline-S" style="fill:none;stroke:#27AAE1;opacity:1;stroke-width:0.577;" x1="263" x2="3036" y1="625.541" y2="625.541"/><g id="H-reference" style="fill:#27AAE1;stroke:none;" transform="matrix(1 0 0 1 339 1126)"><path d="M 54.9316 0 L 57.666 0 L 30.5664 -70.459 L 28.0762 -70.459 L 0.976562 0 L 3.66211 0 L 12.9395 -24.4629 L 45.7031 -24.4629 Z M 29.1992 -67.0898 L 29.4434 -67.0898 L 44.8242 -26.709 L 13.8184 -26.709 Z"/></g><line id="Baseline-M" style="fill:none;stroke:#27AAE1;opacity:1;stroke-width:0.577;" x1="263" x2="3036" y1="1126" y2="1126"/><line id="Capline-M" style="fill:none;stroke:#27AAE1;opacity:1;stroke-width:0.577;" x1="263" x2="3036" y1="1055.54" y2="1055.54"/><g id="H-reference" style="fill:#27AAE1;stroke:none;" transform="matrix(1 0 0 1 339 1556)"><path d="M 54.9316 0 L 57.666 0 L 30.5664 -70.459 L 28.0762 -70.459 L 0.976562 0 L 3.66211 0 L 12.9395 -24.4629 L 45.7031 -24.4629 Z M 29.1992 -67.0898 L 29.4434 -67.0898 L 44.8242 -26.709 L 13.8184 -26.709 Z"/></g><line id="Baseline-L" style="fill:none;stroke:#27AAE1;opacity:1;stroke-width:0.577;" x1="263" x2="3036" y1="1556" y2="1556"/><line id="Capline-L" style="fill:none;stroke:#27AAE1;opacity:1;stroke-width:0.577;" x1="263" x2="3036" y1="1485.54" y2="1485.54"/><rect height="119.336" id="left-margin" style="fill:darkred;stroke:none;opacity:0.4;" width="12.4512" x="1394.06" y="1030.79"/><rect height="119.336" id="right-margin" style="fill:darkgreen;stroke:none;opacity:0.4;" width="12.4512" x="1502.5112" y="1030.79"/><rect x="1406.5112" y="1045" width="96" height="96" fill="none" stroke="blue" stroke-dasharray="5"/><rect x="1394.06" y="1030.79" width="120.9024" height="119.336" fill="none" stroke="blue"/></g><g id="Symbols"><g id="Bold-L" transform="matrix(1 0 0 1 2266 1556)"><path d="M77.561 42.009  55.148 20.401 H21.769 V-12.977 L-0.323 -35.23 L21.769 -57.482 V-91.022 H55.148 L77.561 -113.114 L99.653 -91.022 H133.192 V-57.482 L155.284 -35.23 L133.192 -12.977 V20.401 H99.653 L77.561 42.009 Z M98.846 -14.114 Q107.554 -22.831 107.554 -35.399 Q107.554 -47.969 98.838 -56.676 Q90.121 -65.384 77.553 -65.384 Q64.984 -65.384 56.276 -56.668 Q47.569 -47.951 47.569 -35.383 Q47.569 -22.814 56.284 -14.106 Q65.001 -5.399 77.569 -5.399 Q90.139 -5.399 98.846 -14.114 Z M77.561 20.724  93.351 5.244 H117.874 V-19.427 L133.838 -35.23 L117.874 -51.194 V-75.704 H93.364 L77.561 -91.667 L61.598 -75.704 H36.926 V-51.194 L21.124 -35.23 L36.926 -19.427 V5.244 H61.436 L77.561 20.724 Z"/></g><g id="Semibold-L" transform="matrix(1 0 0 1 1970.27 1556)"><path d="M77.561 40.046  55.428 18.648 H23.522 V-13.258 L1.64 -35.23 L23.522 -57.202 V-89.2 H55.428 L77.561 -111.08 L99.372 -89.2 H131.37 V-57.202 L153.25 -35.23 L131.37 -13.258 V18.648 H99.372 L77.561 40.046 Z M99.267 -13.693 Q108.184 -22.62 108.184 -35.399 Q108.184 -48.178 99.259 -57.097 Q90.332 -66.014 77.553 -66.014 Q64.774 -66.014 55.855 -57.089 Q46.938 -48.162 46.938 -35.383 Q46.938 -22.604 55.863 -13.685 Q64.79 -4.768 77.569 -4.768 Q90.348 -4.768 99.267 -13.693 Z M77.561 22.127  94.051 5.874 H118.504 V-18.657 L135.169 -35.23 L118.504 -51.895 V-76.334 H94.065 L77.561 -92.999 L60.827 -76.334 H36.296 V-51.895 L19.721 -35.23 L36.296 -18.657 V5.874 H60.665 L77.561 22.127 Z"/></g><g id="Medium-L" transform="matrix(1 0 0 1 1674.31 1556)"><path d="M77.561 38.574  55.638 17.334 H24.836 V-13.468 L3.112 -35.23 L24.836 -56.992 V-87.833 H55.638 L77.561 -109.555 L99.162 -87.833 H130.003 V-56.992 L151.725 -35.23 L130.003 -13.468 V17.334 H99.162 L77.561 38.574 Z M99.583 -13.379 Q108.658 -22.462 108.658 -35.399 Q108.658 -48.336 99.573 -57.413 Q90.49 -66.488 77.553 -66.488 Q64.616 -66.488 55.539 -57.403 Q46.464 -48.32 46.464 -35.383 Q46.464 -22.446 55.549 -13.369 Q64.632 -4.294 77.569 -4.294 Q90.506 -4.294 99.583 -13.379 Z M77.561 23.178  94.578 6.348 H118.978 V-18.078 L136.169 -35.23 L118.978 -52.421 V-76.808 H94.591 L77.561 -93.999 L60.248 -76.808 H35.822 V-52.421 L18.67 -35.23 L35.822 -18.078 V6.348 H60.087 L77.561 23.178 Z"/></g><g id="Regular-L" transform="matrix(1 0 0 1 1378.56 1556)"><path d="M77.561 37.494  55.793 16.37 H25.8 V-13.622 L4.192 -35.23 L25.8 -56.837 V-86.83 H55.793 L77.561 -108.438 L99.008 -86.83 H129 V-56.837 L150.608 -35.23 L129 -13.622 V16.37 H99.008 L77.561 37.494 Z M99.814 -13.147 Q109.005 -22.348 109.005 -35.399 Q109.005 -48.452 99.806 -57.644 Q90.605 -66.835 77.553 -66.835 Q64.5 -66.835 55.309 -57.636 Q46.117 -48.435 46.117 -35.383 Q46.117 -22.33 55.317 -13.139 Q64.518 -3.947 77.569 -3.947 Q90.623 -3.947 99.814 -13.147 Z M77.561 23.949  94.963 6.695 H119.325 V-17.654 L136.901 -35.23 L119.325 -52.806 V-77.155 H94.976 L77.561 -94.731 L59.824 -77.155 H35.475 V-52.806 L17.899 -35.23 L35.475 -17.654 V6.695 H59.663 L77.561 23.949 Z"/></g><g id="Light-L" transform="matrix(1 0 0 1 1082.77 1556)"><path d="M77.5 33.09  57.144 13.145 H29.025 V-14.974 L8.72 -35.23 L29.025 -55.486 V-83.605 H57.144 L77.5 -103.91 L97.656 -83.605 H125.775 V-55.486 L146.08 -35.23 L125.775 -14.974 V13.145 H97.656 L77.5 33.09 Z M98.154 -14.698 Q106.71 -23.215 106.71 -35.324 Q106.71 -47.43 98.146 -55.984 Q89.582 -64.54 77.476 -64.54 Q65.369 -64.54 56.86 -55.976 Q48.351 -47.412 48.351 -35.306 Q48.351 -23.199 56.868 -14.69 Q65.385 -6.181 77.494 -6.181 Q89.6 -6.181 98.154 -14.698 Z M77.5 22.77  94.565 5.826 H118.456 V-18.015 L135.661 -35.23 L118.446 -52.445 V-76.286 H94.604 L77.5 -93.491 L60.196 -76.286 H36.354 V-52.445 L19.139 -35.23 L36.344 -18.015 V5.826 H60.096 L77.5 22.77 Z"/></g><g id="Thin-L" transform="matrix(1 0 0 1 787.282 1556)"><path d="M77.437 28.686  58.493 9.92 H32.25 V-16.323 L13.247 -35.23 L32.25 -54.137 V-80.38 H58.493 L77.437 -99.383 L96.307 -80.38 H122.55 V-54.137 L141.553 -35.23 L122.55 -16.323 V9.92 H96.307 L77.437 28.686 Z M96.497 -16.248 Q104.416 -24.084 104.416 -35.246 Q104.416 -46.408 96.489 -54.327 Q88.562 -62.246 77.398 -62.246 Q66.237 -62.246 58.41 -54.319 Q50.583 -46.392 50.583 -35.228 Q50.583 -24.067 58.418 -16.24 Q66.254 -8.413 77.416 -8.413 Q88.578 -8.413 96.497 -16.248 Z M77.437 21.591  94.167 4.958 H117.588 V-18.378 L134.421 -35.23 L117.567 -52.082 V-75.418 H94.231 L77.437 -92.251 L60.569 -75.418 H37.233 V-52.082 L20.379 -35.23 L37.212 -18.378 V4.958 H60.53 L77.437 21.591 Z"/></g><g id="Ultralight-L" transform="matrix(1 0 0 1 491.205 1556)"><path d="M77.4 26.045  59.303 7.985 H34.185 V-17.133 L15.964 -35.23 L34.185 -53.325 V-78.445 H59.303 L77.4 -96.666 L95.495 -78.445 H120.615 V-53.325 L138.836 -35.23 L120.615 -17.133 V7.985 H95.495 L77.4 26.045 Z M95.502 -17.178 Q103.039 -24.605 103.039 -35.199 Q103.039 -45.795 95.494 -53.332 Q87.947 -60.869 77.353 -60.869 Q66.758 -60.869 59.34 -53.324 Q51.922 -45.777 51.922 -35.183 Q51.922 -24.587 59.348 -17.17 Q66.775 -9.752 77.369 -9.752 Q87.965 -9.752 95.502 -17.178 Z M77.4 20.885  93.928 4.438 H117.068 V-18.594 L133.676 -35.23 L117.04 -51.866 V-74.897 H94.009 L77.4 -91.506 L60.791 -74.897 H37.76 V-51.866 L21.124 -35.23 L37.733 -18.594 V4.438 H60.791 L77.4 20.885 Z"/></g><g id="Bold-M" transform="matrix(1 0 0 1 2281.8 1126)"><path d="M60 26.02  42.625 9.02 H15.75 V-17.855 L-1.25 -35.23 L15.75 -52.605 V-79.48 H42.625 L60 -96.605 L77.375 -79.48 H104.25 V-52.605 L121.375 -35.23 L104.25 -17.855 V9.02 H77.375 L60 26.02 Z M76.625 -18.605 Q83.5 -25.48 83.5 -35.23 Q83.5 -44.98 76.625 -51.855 Q69.75 -58.73 60 -58.73 Q50.25 -58.73 43.375 -51.855 Q36.5 -44.98 36.5 -35.23 Q36.5 -25.48 43.375 -18.605 Q50.25 -11.73 60 -11.73 Q69.75 -11.73 76.625 -18.605 Z M60 4.02  70.75 -6.73 H88.5 V-24.48 L99.25 -35.23 L88.5 -45.98 V-63.73 H70.75 L60 -74.48 L49.25 -63.73 H31.5 V-45.98 L20.75 -35.23 L31.5 -24.48 V-6.73 H49.25 L60 4.02 Z"/></g><g id="Semibold-M" transform="matrix(1 0 0 1 1985.97 1126)"><path d="M60 23.955  42.896 7.173 H17.598 V-18.126 L0.815 -35.23 L17.598 -52.334 V-77.632 H42.896 L60 -94.485 L77.104 -77.632 H102.403 V-52.334 L119.255 -35.23 L102.403 -18.126 V7.173 H77.104 L60 23.955 Z M77.088 -18.142 Q84.153 -25.209 84.153 -35.23 Q84.153 -45.251 77.088 -52.317 Q70.021 -59.382 60 -59.382 Q49.979 -59.382 42.913 -52.317 Q35.847 -45.251 35.847 -35.23 Q35.847 -25.209 42.913 -18.142 Q49.979 -11.077 60 -11.077 Q70.021 -11.077 77.088 -18.142 Z M60 5.433  71.511 -6.077 H89.153 V-23.719 L100.662 -35.23 L89.153 -46.741 V-64.382 H71.511 L60 -75.892 L48.489 -64.382 H30.848 V-46.741 L19.337 -35.23 L30.848 -23.719 V-6.077 H48.489 L60 5.433 Z"/></g><g id="Medium-M" transform="matrix(1 0 0 1 1689.91 1126)"><path d="M60 22.406  43.1 5.786 H18.984 V-18.33 L2.364 -35.23 L18.984 -52.13 V-76.246 H43.1 L60 -92.896 L76.9 -76.246 H101.016 V-52.13 L117.666 -35.23 L101.016 -18.33 V5.786 H76.9 L60 22.406 Z M77.434 -17.796 Q84.641 -25.005 84.641 -35.23 Q84.641 -45.455 77.434 -52.664 Q70.225 -59.871 60 -59.871 Q49.775 -59.871 42.566 -52.664 Q35.359 -45.455 35.359 -35.23 Q35.359 -25.005 42.566 -17.796 Q49.775 -10.589 60 -10.589 Q70.225 -10.589 77.434 -17.796 Z M60 6.493  72.081 -5.589 H89.641 V-23.149 L101.722 -35.23 L89.641 -47.311 V-64.871 H72.081 L60 -76.952 L47.919 -64.871 H30.359 V-47.311 L18.277 -35.23 L30.359 -23.149 V-5.589 H47.919 L60 6.493 Z"/></g><g id="Regular-M" transform="matrix(1 0 0 1 1394.06 1126)"><path d="M60 21.27  43.25 4.77 H20 V-18.48 L3.5 -35.23 L20 -51.98 V-75.23 H43.25 L60 -91.73 L76.75 -75.23 H100 V-51.98 L116.5 -35.23 L100 -18.48 V4.77 H76.75 L60 21.27 Z M77.688 -17.542 Q85 -24.855 85 -35.23 Q85 -45.605 77.688 -52.917 Q70.375 -60.23 60 -60.23 Q49.625 -60.23 42.312 -52.917 Q35 -45.605 35 -35.23 Q35 -24.855 42.312 -17.542 Q49.625 -10.23 60 -10.23 Q70.375 -10.23 77.688 -17.542 Z M60 7.27  72.5 -5.23 H90 V-22.73 L102.5 -35.23 L90 -47.73 V-65.23 H72.5 L60 -77.73 L47.5 -65.23 H30 V-47.73 L17.5 -35.23 L30 -22.73 V-5.23 H47.5 L60 7.27 Z"/></g><g id="Light-M" transform="matrix(1 0 0 1 1098.18 1126)"><path d="M60 17.809  44.297 2.27 H22.5 V-19.527 L6.961 -35.23 L22.5 -50.932 V-72.73 H44.297 L60 -88.269 L75.703 -72.73 H97.5 V-50.932 L113.039 -35.23 L97.5 -19.527 V2.27 H75.703 L60 17.809 Z M76.317 -18.912 Q83.076 -25.672 83.076 -35.23 Q83.076 -44.787 76.317 -51.547 Q69.558 -58.306 60 -58.306 Q50.443 -58.306 43.682 -51.547 Q36.924 -44.787 36.924 -35.23 Q36.924 -25.672 43.682 -18.912 Q50.443 -12.154 60 -12.154 Q69.558 -12.154 76.317 -18.912 Z M60 7.27  72.5 -5.23 H90 V-22.73 L102.5 -35.23 L90 -47.73 V-65.23 H72.5 L60 -77.73 L47.5 -65.23 H30 V-47.73 L17.5 -35.23 L30 -22.73 V-5.23 H47.5 L60 7.27 Z"/></g><g id="Thin-M" transform="matrix(1 0 0 1 802.565 1126)"><path d="M60 14.348  45.344 -0.23 H25 V-20.574 L10.422 -35.23 L25 -49.886 V-70.23 H45.344 L60 -84.807 L74.656 -70.23 H95 V-49.886 L109.578 -35.23 L95 -20.574 V-0.23 H74.656 L60 14.348 Z M74.948 -20.282 Q81.154 -26.49 81.154 -35.23 Q81.154 -43.97 74.948 -50.177 Q68.74 -56.384 60 -56.384 Q51.26 -56.384 45.053 -50.177 Q38.846 -43.97 38.846 -35.23 Q38.846 -26.49 45.053 -20.282 Q51.26 -14.076 60 -14.076 Q68.74 -14.076 74.948 -20.282 Z M60 7.27  72.5 -5.23 H90 V-22.73 L102.5 -35.23 L90 -47.73 V-65.23 H72.5 L60 -77.73 L47.5 -65.23 H30 V-47.73 L17.5 -35.23 L30 -22.73 V-5.23 H47.5 L60 7.27 Z"/></g><g id="Ultralight-M" transform="matrix(1 0 0 1 506.415 1126)"><path d="M60 12.27  45.971 -1.73 H26.5 V-21.201 L12.5 -35.23 L26.5 -49.257 V-68.73 H45.971 L60 -82.73 L74.028 -68.73 H93.5 V-49.257 L107.5 -35.23 L93.5 -21.201 V-1.73 H74.028 L60 12.27 Z M74.125 -21.105 Q80 -26.98 80 -35.23 Q80 -43.48 74.125 -49.355 Q68.25 -55.23 60 -55.23 Q51.75 -55.23 45.875 -49.355 Q40 -43.48 40 -35.23 Q40 -26.98 45.875 -21.105 Q51.75 -15.23 60 -15.23 Q68.25 -15.23 74.125 -21.105 Z M60 7.27  72.5 -5.23 H90 V-22.73 L102.5 -35.23 L90 -47.73 V-65.23 H72.5 L60 -77.73 L47.5 -65.23 H30 V-47.73 L17.5 -35.23 L30 -22.73 V-5.23 H47.5 L60 7.27 Z"/></g><g id="Bold-S" transform="matrix(1 0 0 1 2294.23 696)"><path d="M47.34 8.757  35.012 -3.473 H15.583 V-22.902 L3.353 -35.23 L15.583 -47.558 V-66.987 H35.012 L47.34 -79.315 L59.668 -66.987 H79.097 V-47.558 L91.425 -35.23 L79.097 -22.902 V-3.473 H59.668 L47.34 8.757 Z M59.915 -22.678 Q65.093 -27.878 65.093 -35.253 Q65.093 -42.627 59.892 -47.805 Q54.692 -52.982 47.317 -52.982 Q39.943 -52.982 34.765 -47.782 Q29.588 -42.582 29.588 -35.207 Q29.588 -27.833 34.788 -22.655 Q39.988 -17.477 47.363 -17.477 Q54.737 -17.477 59.915 -22.678 Z M47.34 -7.615  54.836 -15.11 H67.46 V-27.734 L74.955 -35.23 L67.46 -42.725 V-55.349 H54.836 L47.34 -62.845 L39.845 -55.349 H27.221 V-42.725 L19.725 -35.23 L27.221 -27.734 V-15.11 H39.845 L47.34 -7.615 Z"/></g><g id="Semibold-S" transform="matrix(1 0 0 1 1998.1 696)"><path d="M47.34 7.127  35.226 -4.93 H17.04 V-23.116 L4.983 -35.23 L17.04 -47.344 V-65.53 H35.226 L47.34 -77.643 L59.454 -65.53 H77.64 V-47.344 L89.753 -35.23 L77.64 -23.116 V-4.93 H59.454 L47.34 7.127 Z M60.28 -22.313 Q65.607 -27.663 65.607 -35.253 Q65.607 -42.841 60.257 -48.17 Q54.907 -53.497 47.317 -53.497 Q39.729 -53.497 34.4 -48.147 Q29.073 -42.797 29.073 -35.207 Q29.073 -27.619 34.423 -22.29 Q39.773 -16.963 47.363 -16.963 Q54.951 -16.963 60.28 -22.313 Z M47.34 -6.501  55.436 -14.596 H67.974 V-27.134 L76.069 -35.23 L67.974 -43.326 V-55.864 H55.436 L47.34 -63.959 L39.244 -55.864 H26.706 V-43.326 L18.611 -35.23 L26.706 -27.134 V-14.596 H39.244 L47.34 -6.501 Z"/></g><g id="Medium-S" transform="matrix(1 0 0 1 1701.85 696)"><path d="M47.34 5.906  35.387 -6.024 H18.134 V-23.277 L6.204 -35.23 L18.134 -47.183 V-64.436 H35.387 L47.34 -76.389 L59.293 -64.436 H76.546 V-47.183 L88.499 -35.23 L76.546 -23.277 V-6.024 H59.293 L47.34 5.906 Z M60.553 -22.04 Q65.993 -27.503 65.993 -35.253 Q65.993 -43.002 60.53 -48.443 Q55.067 -53.883 47.317 -53.883 Q39.568 -53.883 34.127 -48.42 Q28.687 -42.957 28.687 -35.207 Q28.687 -27.458 34.15 -22.017 Q39.613 -16.577 47.363 -16.577 Q55.112 -16.577 60.553 -22.04 Z M47.34 -5.664  55.886 -14.21 H68.36 V-26.684 L76.906 -35.23 L68.36 -43.776 V-56.25 H55.886 L47.34 -64.796 L38.794 -56.25 H26.32 V-43.776 L17.774 -35.23 L26.32 -26.684 V-14.21 H38.794 L47.34 -5.664 Z"/></g><g id="Regular-S" transform="matrix(1 0 0 1 1405.73 696)"><path d="M47.34 5.009  35.505 -6.826 H18.936 V-23.395 L7.101 -35.23 L18.936 -47.065 V-63.634 H35.505 L47.34 -75.469 L59.175 -63.634 H75.744 V-47.065 L87.579 -35.23 L75.744 -23.395 V-6.826 H59.175 L47.34 5.009 Z M60.753 -21.84 Q66.276 -27.384 66.276 -35.253 Q66.276 -43.12 60.73 -48.643 Q55.186 -54.166 47.317 -54.166 Q39.45 -54.166 33.927 -48.62 Q28.404 -43.076 28.404 -35.207 Q28.404 -27.34 33.95 -21.817 Q39.494 -16.294 47.363 -16.294 Q55.23 -16.294 60.753 -21.84 Z M47.34 -5.051  56.216 -13.927 H68.643 V-26.354 L77.519 -35.23 L68.643 -44.106 V-56.533 H56.216 L47.34 -65.409 L38.464 -56.533 H26.037 V-44.106 L17.161 -35.23 L26.037 -26.354 V-13.927 H38.464 L47.34 -5.051 Z"/></g><g id="Light-S" transform="matrix(1 0 0 1 1109.75 696)"><path d="M47.34 2.278  36.331 -8.798 H20.909 V-24.221 L9.832 -35.23 L20.909 -46.239 V-61.661 H36.331 L47.34 -72.738 L58.349 -61.661 H73.772 V-46.239 L84.848 -35.23 L73.772 -24.221 V-8.798 H58.349 L47.34 2.278 Z M59.672 -22.921 Q64.758 -28.029 64.758 -35.253 Q64.758 -42.475 59.649 -47.562 Q54.541 -52.648 47.317 -52.648 Q40.095 -52.648 35.008 -47.539 Q29.922 -42.431 29.922 -35.207 Q29.922 -27.985 35.031 -22.898 Q40.139 -17.812 47.363 -17.812 Q54.585 -17.812 59.672 -22.921 Z M47.34 -5.051  56.216 -13.927 H68.643 V-26.354 L77.519 -35.23 L68.643 -44.106 V-56.533 H56.216 L47.34 -65.409 L38.464 -56.533 H26.037 V-44.106 L17.161 -35.23 L26.037 -26.354 V-13.927 H38.464 L47.34 -5.051 Z"/></g><g id="Thin-S" transform="matrix(1 0 0 1 814.015 696)"><path d="M47.34 -0.453  37.157 -10.771 H22.881 V-25.047 L12.563 -35.23 L22.881 -45.413 V-59.689 H37.157 L47.34 -70.007 L57.523 -59.689 H71.799 V-45.413 L82.117 -35.23 L71.799 -25.047 V-10.771 H57.523 L47.34 -0.453 Z M58.591 -24.002 Q63.241 -28.674 63.241 -35.253 Q63.241 -41.83 58.568 -46.481 Q53.896 -51.131 47.317 -51.131 Q40.74 -51.131 36.089 -46.458 Q31.439 -41.786 31.439 -35.207 Q31.439 -28.63 36.112 -23.979 Q40.784 -19.329 47.363 -19.329 Q53.94 -19.329 58.591 -24.002 Z M47.34 -5.051  56.216 -13.927 H68.643 V-26.354 L77.519 -35.23 L68.643 -44.106 V-56.533 H56.216 L47.34 -65.409 L38.464 -56.533 H26.037 V-44.106 L17.161 -35.23 L26.037 -26.354 V-13.927 H38.464 L47.34 -5.051 Z"/></g><g id="Ultralight-S" transform="matrix(1 0 0 1 517.792 696)"><path d="M47.34 -2.092  37.652 -11.954 H24.065 V-25.542 L14.202 -35.23 L24.065 -44.917 V-58.505 H37.652 L47.34 -68.368 L57.027 -58.505 H70.615 V-44.917 L80.478 -35.23 L70.615 -25.542 V-11.954 H57.027 L47.34 -2.092 Z M57.942 -24.65 Q62.331 -29.061 62.331 -35.253 Q62.331 -41.443 57.92 -45.832 Q53.509 -50.221 47.317 -50.221 Q41.127 -50.221 36.738 -45.81 Q32.349 -41.399 32.349 -35.207 Q32.349 -29.017 36.76 -24.628 Q41.171 -20.239 47.363 -20.239 Q53.553 -20.239 57.942 -24.65 Z M47.34 -5.051  56.216 -13.927 H68.643 V-26.354 L77.519 -35.23 L68.643 -44.106 V-56.533 H56.216 L47.34 -65.409 L38.464 -56.533 H26.037 V-44.106 L17.161 -35.23 L26.037 -26.354 V-13.927 H38.464 L47.34 -5.051 Z"/></g></g></svg>