<svg xmlns="http://www.w3.org/2000/svg" version="1.1" width="3300" height="2000"><g id="Notes"><style>
    text {
      font-family: monospace;
      text-anchor: middle;
    }
    text.emphasis {
      font-weight:bold;
    }
    text.lanchor {
      text-anchor: start;
    }
  </style><rect height="2200" id="artboard" fill="white" width="3300" x="0" y="0"/><line id="" style="fill:none;stroke:black;stroke-width:0.5;" x1="263" x2="3036" y1="292" y2="292"/><text class="lanchor emphasis" transform="matrix(1 0 0 1 263 322)">Weight/Scale Variations</text><text transform="matrix(1 0 0 1 559.711 322)">Ultralight</text><text transform="matrix(1 0 0 1 856.422 322)">Thin</text><text transform="matrix(1 0 0 1 1153.13 322)">Light</text><text transform="matrix(1 0 0 1 1449.84 322)">Regular</text><text transform="matrix(1 0 0 1 1746.56 322)">Medium</text><text transform="matrix(1 0 0 1 2043.27 322)">Semibold</text><text transform="matrix(1 0 0 1 2339.98 322)">Bold</text><text transform="matrix(1 0 0 1 2636.69 322)">Heavy</text><text transform="matrix(1 0 0 1 2933.4 322)">Black</text><text id="template-version" style="text-anchor: end;" transform="matrix(1 0 0 1 3036 1933)">Template v.1.0</text><text class="lanchor" transform="matrix(1 0 0 1 263 726)">Small</text><text class="lanchor" transform="matrix(1 0 0 1 263 1156)">Medium</text><text class="lanchor" transform="matrix(1 0 0 1 263 1586)">Large</text></g><g id="Guides"><g id="H-reference" style="fill:#27AAE1;stroke:none;" transform="matrix(1 0 0 1 339 696)"><path d="M 54.9316 0 L 57.666 0 L 30.5664 -70.459 L 28.0762 -70.459 L 0.976562 0 L 3.66211 0 L 12.9395 -24.4629 L 45.7031 -24.4629 Z M 29.1992 -67.0898 L 29.4434 -67.0898 L 44.8242 -26.709 L 13.8184 -26.709 Z"/></g><line id="Baseline-S" style="fill:none;stroke:#27AAE1;opacity:1;stroke-width:0.577;" x1="263" x2="3036" y1="696" y2="696"/><line id="Capline-S" style="fill:none;stroke:#27AAE1;opacity:1;stroke-width:0.577;" x1="263" x2="3036" y1="625.541" y2="625.541"/><g id="H-reference" style="fill:#27AAE1;stroke:none;" transform="matrix(1 0 0 1 339 1126)"><path d="M 54.9316 0 L 57.666 0 L 30.5664 -70.459 L 28.0762 -70.459 L 0.976562 0 L 3.66211 0 L 12.9395 -24.4629 L 45.7031 -24.4629 Z M 29.1992 -67.0898 L 29.4434 -67.0898 L 44.8242 -26.709 L 13.8184 -26.709 Z"/></g><line id="Baseline-M" style="fill:none;stroke:#27AAE1;opacity:1;stroke-width:0.577;" x1="263" x2="3036" y1="1126" y2="1126"/><line id="Capline-M" style="fill:none;stroke:#27AAE1;opacity:1;stroke-width:0.577;" x1="263" x2="3036" y1="1055.54" y2="1055.54"/><g id="H-reference" style="fill:#27AAE1;stroke:none;" transform="matrix(1 0 0 1 339 1556)"><path d="M 54.9316 0 L 57.666 0 L 30.5664 -70.459 L 28.0762 -70.459 L 0.976562 0 L 3.66211 0 L 12.9395 -24.4629 L 45.7031 -24.4629 Z M 29.1992 -67.0898 L 29.4434 -67.0898 L 44.8242 -26.709 L 13.8184 -26.709 Z"/></g><line id="Baseline-L" style="fill:none;stroke:#27AAE1;opacity:1;stroke-width:0.577;" x1="263" x2="3036" y1="1556" y2="1556"/><line id="Capline-L" style="fill:none;stroke:#27AAE1;opacity:1;stroke-width:0.577;" x1="263" x2="3036" y1="1485.54" y2="1485.54"/><rect height="119.336" id="left-margin" style="fill:darkred;stroke:none;opacity:0.4;" width="12.4512" x="1394.06" y="1030.79"/><rect height="119.336" id="right-margin" style="fill:darkgreen;stroke:none;opacity:0.4;" width="12.4512" x="1502.5112" y="1030.79"/><rect x="1406.5112" y="1045" width="96" height="96" fill="none" stroke="blue" stroke-dasharray="5"/><rect x="1394.06" y="1030.79" width="120.9024" height="119.336" fill="none" stroke="blue"/></g><g id="Symbols"><g id="Ultralight-L" transform="matrix(1 0 0 1 491.205 1556)"><path d="M77.4 -100.23 C113.299 -100.23 142.4 -71.129 142.4 -35.23 C142.4 0.669 113.299 29.77 77.4 29.77 C41.501 29.77 12.4 0.669 12.4 -35.23 C12.4 -71.129 41.501 -100.23 77.4 -100.23 Z M77.4 -95.43 C44.152 -95.43 17.2 -68.478 17.2 -35.23 C17.2 -1.982 44.152 24.97 77.4 24.97 C110.648 24.97 137.6 -1.982 137.6 -35.23 C137.6 -68.478 110.648 -95.43 77.4 -95.43 Z M75 -50.23 L79.8 -50.23 L79.8 -12.23 L75 -12.23 Z M77.4 -68.23 C79.057 -68.23 80.4 -66.887 80.4 -65.23 C80.4 -63.573 79.057 -62.23 77.4 -62.23 C75.743 -62.23 74.4 -63.573 74.4 -65.23 C74.4 -66.887 75.743 -68.23 77.4 -68.23 Z"/></g>
<g id="Thin-L" transform="matrix(1 0 0 1 787.282 1556)"><path d="M77.4 -100.23 C113.299 -100.23 142.4 -71.129 142.4 -35.23 C142.4 0.669 113.299 29.77 77.4 29.77 C41.501 29.77 12.4 0.669 12.4 -35.23 C12.4 -71.129 41.501 -100.23 77.4 -100.23 Z M77.4 -93.63 C45.147 -93.63 19 -67.483 19 -35.23 C19 -2.977 45.147 23.17 77.4 23.17 C109.653 23.17 135.8 -2.977 135.8 -35.23 C135.8 -67.483 109.653 -93.63 77.4 -93.63 Z M74.1 -50.23 L80.7 -50.23 L80.7 -12.23 L74.1 -12.23 Z M77.4 -69.355 C79.678 -69.355 81.525 -67.508 81.525 -65.23 C81.525 -62.952 79.678 -61.105 77.4 -61.105 C75.122 -61.105 73.275 -62.952 73.275 -65.23 C73.275 -67.508 75.122 -69.355 77.4 -69.355 Z"/></g>
<g id="Light-L" transform="matrix(1 0 0 1 1082.77 1556)"><path d="M77.4 -100.23 C113.299 -100.23 142.4 -71.129 142.4 -35.23 C142.4 0.669 113.299 29.77 77.4 29.77 C41.501 29.77 12.4 0.669 12.4 -35.23 C12.4 -71.129 41.501 -100.23 77.4 -100.23 Z M77.4 -91.83 C46.141 -91.83 20.8 -66.489 20.8 -35.23 C20.8 -3.971 46.141 21.37 77.4 21.37 C108.659 21.37 134 -3.971 134 -35.23 C134 -66.489 108.659 -91.83 77.4 -91.83 Z M73.2 -50.23 L81.6 -50.23 L81.6 -12.23 L73.2 -12.23 Z M77.4 -70.48 C80.299 -70.48 82.65 -68.129 82.65 -65.23 C82.65 -62.331 80.299 -59.98 77.4 -59.98 C74.501 -59.98 72.15 -62.331 72.15 -65.23 C72.15 -68.129 74.501 -70.48 77.4 -70.48 Z"/></g>
<g id="Regular-L" transform="matrix(1 0 0 1 1378.56 1556)"><path d="M77.4 -100.23 C113.299 -100.23 142.4 -71.129 142.4 -35.23 C142.4 0.669 113.299 29.77 77.4 29.77 C41.501 29.77 12.4 0.669 12.4 -35.23 C12.4 -71.129 41.501 -100.23 77.4 -100.23 Z M77.4 -88.23 C48.129 -88.23 24.4 -64.501 24.4 -35.23 C24.4 -5.959 48.129 17.77 77.4 17.77 C106.671 17.77 130.4 -5.959 130.4 -35.23 C130.4 -64.501 106.671 -88.23 77.4 -88.23 Z M71.4 -50.23 L83.4 -50.23 L83.4 -12.23 L71.4 -12.23 Z M77.4 -72.73 C81.542 -72.73 84.9 -69.372 84.9 -65.23 C84.9 -61.088 81.542 -57.73 77.4 -57.73 C73.258 -57.73 69.9 -61.088 69.9 -65.23 C69.9 -69.372 73.258 -72.73 77.4 -72.73 Z"/></g>
<g id="Medium-L" transform="matrix(1 0 0 1 1674.31 1556)"><path d="M77.4 -100.23 C113.299 -100.23 142.4 -71.129 142.4 -35.23 C142.4 0.669 113.299 29.77 77.4 29.77 C41.501 29.77 12.4 0.669 12.4 -35.23 C12.4 -71.129 41.501 -100.23 77.4 -100.23 Z M77.4 -86.43 C49.123 -86.43 26.2 -63.507 26.2 -35.23 C26.2 -6.953 49.123 15.97 77.4 15.97 C105.677 15.97 128.6 -6.953 128.6 -35.23 C128.6 -63.507 105.677 -86.43 77.4 -86.43 Z M70.5 -50.23 L84.3 -50.23 L84.3 -12.23 L70.5 -12.23 Z M77.4 -73.855 C82.163 -73.855 86.025 -69.993 86.025 -65.23 C86.025 -60.467 82.163 -56.605 77.4 -56.605 C72.637 -56.605 68.775 -60.467 68.775 -65.23 C68.775 -69.993 72.637 -73.855 77.4 -73.855 Z"/></g>
<g id="Semibold-L" transform="matrix(1 0 0 1 1970.27 1556)"><path d="M77.4 -100.23 C113.299 -100.23 142.4 -71.129 142.4 -35.23 C142.4 0.669 113.299 29.77 77.4 29.77 C41.501 29.77 12.4 0.669 12.4 -35.23 C12.4 -71.129 41.501 -100.23 77.4 -100.23 Z M77.4 -84.63 C50.117 -84.63 28 -62.513 28 -35.23 C28 -7.947 50.117 14.17 77.4 14.17 C104.683 14.17 126.8 -7.947 126.8 -35.23 C126.8 -62.513 104.683 -84.63 77.4 -84.63 Z M69.6 -50.23 L85.2 -50.23 L85.2 -12.23 L69.6 -12.23 Z M77.4 -74.98 C82.785 -74.98 87.15 -70.615 87.15 -65.23 C87.15 -59.845 82.785 -55.48 77.4 -55.48 C72.015 -55.48 67.65 -59.845 67.65 -65.23 C67.65 -70.615 72.015 -74.98 77.4 -74.98 Z"/></g>
<g id="Bold-L" transform="matrix(1 0 0 1 2266 1556)"><path d="M77.4 -100.23 C113.299 -100.23 142.4 -71.129 142.4 -35.23 C142.4 0.669 113.299 29.77 77.4 29.77 C41.501 29.77 12.4 0.669 12.4 -35.23 C12.4 -71.129 41.501 -100.23 77.4 -100.23 Z M77.4 -82.23 C51.443 -82.23 30.4 -61.187 30.4 -35.23 C30.4 -9.273 51.443 11.77 77.4 11.77 C103.357 11.77 124.4 -9.273 124.4 -35.23 C124.4 -61.187 103.357 -82.23 77.4 -82.23 Z M68.4 -50.23 L86.4 -50.23 L86.4 -12.23 L68.4 -12.23 Z M77.4 -76.48 C83.613 -76.48 88.65 -71.443 88.65 -65.23 C88.65 -59.017 83.613 -53.98 77.4 -53.98 C71.187 -53.98 66.15 -59.017 66.15 -65.23 C66.15 -71.443 71.187 -76.48 77.4 -76.48 Z"/></g>
<g id="Ultralight-M" transform="matrix(1 0 0 1 506.415 1126)"><path d="M60 -85.23 C87.614 -85.23 110 -62.844 110 -35.23 C110 -7.616 87.614 14.77 60 14.77 C32.386 14.77 10 -7.616 10 -35.23 C10 -62.844 32.386 -85.23 60 -85.23 Z M60 -81.23 C34.595 -81.23 14 -60.635 14 -35.23 C14 -9.825 34.595 10.77 60 10.77 C85.405 10.77 106 -9.825 106 -35.23 C106 -60.635 85.405 -81.23 60 -81.23 Z M58 -46.23 L62 -46.23 L62 -16.23 L58 -16.23 Z M60 -61.63 C61.325 -61.63 62.4 -60.555 62.4 -59.23 C62.4 -57.905 61.325 -56.83 60 -56.83 C58.675 -56.83 57.6 -57.905 57.6 -59.23 C57.6 -60.555 58.675 -61.63 60 -61.63 Z"/></g>
<g id="Thin-M" transform="matrix(1 0 0 1 802.565 1126)"><path d="M60 -85.23 C87.614 -85.23 110 -62.844 110 -35.23 C110 -7.616 87.614 14.77 60 14.77 C32.386 14.77 10 -7.616 10 -35.23 C10 -62.844 32.386 -85.23 60 -85.23 Z M60 -79.73 C35.423 -79.73 15.5 -59.807 15.5 -35.23 C15.5 -10.653 35.423 9.27 60 9.27 C84.577 9.27 104.5 -10.653 104.5 -35.23 C104.5 -59.807 84.577 -79.73 60 -79.73 Z M57.25 -46.23 L62.75 -46.23 L62.75 -16.23 L57.25 -16.23 Z M60 -62.53 C61.823 -62.53 63.3 -61.053 63.3 -59.23 C63.3 -57.407 61.823 -55.93 60 -55.93 C58.177 -55.93 56.7 -57.407 56.7 -59.23 C56.7 -61.053 58.177 -62.53 60 -62.53 Z"/></g>
<g id="Light-M" transform="matrix(1 0 0 1 1098.18 1126)"><path d="M60 -85.23 C87.614 -85.23 110 -62.844 110 -35.23 C110 -7.616 87.614 14.77 60 14.77 C32.386 14.77 10 -7.616 10 -35.23 C10 -62.844 32.386 -85.23 60 -85.23 Z M60 -78.23 C36.252 -78.23 17 -58.978 17 -35.23 C17 -11.482 36.252 7.77 60 7.77 C83.748 7.77 103 -11.482 103 -35.23 C103 -58.978 83.748 -78.23 60 -78.23 Z M56.5 -46.23 L63.5 -46.23 L63.5 -16.23 L56.5 -16.23 Z M60 -63.43 C62.32 -63.43 64.2 -61.55 64.2 -59.23 C64.2 -56.91 62.32 -55.03 60 -55.03 C57.68 -55.03 55.8 -56.91 55.8 -59.23 C55.8 -61.55 57.68 -63.43 60 -63.43 Z"/></g>
<g id="Regular-M" transform="matrix(1 0 0 1 1394.06 1126)"><path d="M60 -85.23 C87.614 -85.23 110 -62.844 110 -35.23 C110 -7.616 87.614 14.77 60 14.77 C32.386 14.77 10 -7.616 10 -35.23 C10 -62.844 32.386 -85.23 60 -85.23 Z M60 -75.23 C37.909 -75.23 20 -57.321 20 -35.23 C20 -13.139 37.909 4.77 60 4.77 C82.091 4.77 100 -13.139 100 -35.23 C100 -57.321 82.091 -75.23 60 -75.23 Z M55 -46.23 L65 -46.23 L65 -16.23 L55 -16.23 Z M60 -65.23 C63.314 -65.23 66 -62.544 66 -59.23 C66 -55.916 63.314 -53.23 60 -53.23 C56.686 -53.23 54 -55.916 54 -59.23 C54 -62.544 56.686 -65.23 60 -65.23 Z"/></g>
<g id="Medium-M" transform="matrix(1 0 0 1 1689.91 1126)"><path d="M60 -85.23 C87.614 -85.23 110 -62.844 110 -35.23 C110 -7.616 87.614 14.77 60 14.77 C32.386 14.77 10 -7.616 10 -35.23 C10 -62.844 32.386 -85.23 60 -85.23 Z M60 -73.73 C38.737 -73.73 21.5 -56.493 21.5 -35.23 C21.5 -13.967 38.737 3.27 60 3.27 C81.263 3.27 98.5 -13.967 98.5 -35.23 C98.5 -56.493 81.263 -73.73 60 -73.73 Z M54.25 -46.23 L65.75 -46.23 L65.75 -16.23 L54.25 -16.23 Z M60 -66.13 C63.811 -66.13 66.9 -63.041 66.9 -59.23 C66.9 -55.419 63.811 -52.33 60 -52.33 C56.189 -52.33 53.1 -55.419 53.1 -59.23 C53.1 -63.041 56.189 -66.13 60 -66.13 Z"/></g>
<g id="Semibold-M" transform="matrix(1 0 0 1 1985.97 1126)"><path d="M60 -85.23 C87.614 -85.23 110 -62.844 110 -35.23 C110 -7.616 87.614 14.77 60 14.77 C32.386 14.77 10 -7.616 10 -35.23 C10 -62.844 32.386 -85.23 60 -85.23 Z M60 -72.23 C39.565 -72.23 23 -55.665 23 -35.23 C23 -14.795 39.565 1.77 60 1.77 C80.435 1.77 97 -14.795 97 -35.23 C97 -55.665 80.435 -72.23 60 -72.23 Z M53.5 -46.23 L66.5 -46.23 L66.5 -16.23 L53.5 -16.23 Z M60 -67.03 C64.308 -67.03 67.8 -63.538 67.8 -59.23 C67.8 -54.922 64.308 -51.43 60 -51.43 C55.692 -51.43 52.2 -54.922 52.2 -59.23 C52.2 -63.538 55.692 -67.03 60 -67.03 Z"/></g>
<g id="Bold-M" transform="matrix(1 0 0 1 2281.8 1126)"><path d="M60 -85.23 C87.614 -85.23 110 -62.844 110 -35.23 C110 -7.616 87.614 14.77 60 14.77 C32.386 14.77 10 -7.616 10 -35.23 C10 -62.844 32.386 -85.23 60 -85.23 Z M60 -70.23 C40.67 -70.23 25 -54.56 25 -35.23 C25 -15.9 40.67 -0.23 60 -0.23 C79.33 -0.23 95 -15.9 95 -35.23 C95 -54.56 79.33 -70.23 60 -70.23 Z M52.5 -46.23 L67.5 -46.23 L67.5 -16.23 L52.5 -16.23 Z M60 -68.23 C64.971 -68.23 69 -64.201 69 -59.23 C69 -54.259 64.971 -50.23 60 -50.23 C55.029 -50.23 51 -54.259 51 -59.23 C51 -64.201 55.029 -68.23 60 -68.23 Z"/></g>
<g id="Ultralight-S" transform="matrix(1 0 0 1 517.792 696)"><path d="M47.34 -76.73 C70.26 -76.73 88.84 -58.15 88.84 -35.23 C88.84 -12.31 70.26 6.27 47.34 6.27 C24.42 6.27 5.84 -12.31 5.84 -35.23 C5.84 -58.15 24.42 -76.73 47.34 -76.73 Z M47.34 -74.13 C25.856 -74.13 8.44 -56.714 8.44 -35.23 C8.44 -13.746 25.856 3.67 47.34 3.67 C68.824 3.67 86.24 -13.746 86.24 -35.23 C86.24 -56.714 68.824 -74.13 47.34 -74.13 Z M45.94 -43.23 L48.74 -43.23 L48.74 -19.23 L45.94 -19.23 Z M47.34 -56.23 C48.445 -56.23 49.34 -55.335 49.34 -54.23 C49.34 -53.125 48.445 -52.23 47.34 -52.23 C46.235 -52.23 45.34 -53.125 45.34 -54.23 C45.34 -55.335 46.235 -56.23 47.34 -56.23 Z"/></g>
<g id="Thin-S" transform="matrix(1 0 0 1 814.015 696)"><path d="M47.34 -76.73 C70.26 -76.73 88.84 -58.15 88.84 -35.23 C88.84 -12.31 70.26 6.27 47.34 6.27 C24.42 6.27 5.84 -12.31 5.84 -35.23 C5.84 -58.15 24.42 -76.73 47.34 -76.73 Z M47.34 -73.155 C26.395 -73.155 9.415 -56.175 9.415 -35.23 C9.415 -14.285 26.395 2.695 47.34 2.695 C68.285 2.695 85.265 -14.285 85.265 -35.23 C85.265 -56.175 68.285 -73.155 47.34 -73.155 Z M45.415 -43.23 L49.265 -43.23 L49.265 -19.23 L45.415 -19.23 Z M47.34 -56.98 C48.859 -56.98 50.09 -55.749 50.09 -54.23 C50.09 -52.711 48.859 -51.48 47.34 -51.48 C45.821 -51.48 44.59 -52.711 44.59 -54.23 C44.59 -55.749 45.821 -56.98 47.34 -56.98 Z"/></g>
<g id="Light-S" transform="matrix(1 0 0 1 1109.75 696)"><path d="M47.34 -76.73 C70.26 -76.73 88.84 -58.15 88.84 -35.23 C88.84 -12.31 70.26 6.27 47.34 6.27 C24.42 6.27 5.84 -12.31 5.84 -35.23 C5.84 -58.15 24.42 -76.73 47.34 -76.73 Z M47.34 -72.18 C26.933 -72.18 10.39 -55.637 10.39 -35.23 C10.39 -14.823 26.933 1.72 47.34 1.72 C67.747 1.72 84.29 -14.823 84.29 -35.23 C84.29 -55.637 67.747 -72.18 47.34 -72.18 Z M44.89 -43.23 L49.79 -43.23 L49.79 -19.23 L44.89 -19.23 Z M47.34 -57.73 C49.273 -57.73 50.84 -56.163 50.84 -54.23 C50.84 -52.297 49.273 -50.73 47.34 -50.73 C45.407 -50.73 43.84 -52.297 43.84 -54.23 C43.84 -56.163 45.407 -57.73 47.34 -57.73 Z"/></g>
<g id="Regular-S" transform="matrix(1 0 0 1 1405.73 696)"><path d="M47.34 -76.73 C70.26 -76.73 88.84 -58.15 88.84 -35.23 C88.84 -12.31 70.26 6.27 47.34 6.27 C24.42 6.27 5.84 -12.31 5.84 -35.23 C5.84 -58.15 24.42 -76.73 47.34 -76.73 Z M47.34 -70.23 C28.01 -70.23 12.34 -54.56 12.34 -35.23 C12.34 -15.9 28.01 -0.23 47.34 -0.23 C66.67 -0.23 82.34 -15.9 82.34 -35.23 C82.34 -54.56 66.67 -70.23 47.34 -70.23 Z M43.84 -43.23 L50.84 -43.23 L50.84 -19.23 L43.84 -19.23 Z M47.34 -59.23 C50.101 -59.23 52.34 -56.991 52.34 -54.23 C52.34 -51.469 50.101 -49.23 47.34 -49.23 C44.579 -49.23 42.34 -51.469 42.34 -54.23 C42.34 -56.991 44.579 -59.23 47.34 -59.23 Z"/></g>
<g id="Medium-S" transform="matrix(1 0 0 1 1701.85 696)"><path d="M47.34 -76.73 C70.26 -76.73 88.84 -58.15 88.84 -35.23 C88.84 -12.31 70.26 6.27 47.34 6.27 C24.42 6.27 5.84 -12.31 5.84 -35.23 C5.84 -58.15 24.42 -76.73 47.34 -76.73 Z M47.34 -69.255 C28.549 -69.255 13.315 -54.021 13.315 -35.23 C13.315 -16.439 28.549 -1.205 47.34 -1.205 C66.131 -1.205 81.365 -16.439 81.365 -35.23 C81.365 -54.021 66.131 -69.255 47.34 -69.255 Z M43.315 -43.23 L51.365 -43.23 L51.365 -19.23 L43.315 -19.23 Z M47.34 -59.98 C50.516 -59.98 53.09 -57.406 53.09 -54.23 C53.09 -51.054 50.516 -48.48 47.34 -48.48 C44.164 -48.48 41.59 -51.054 41.59 -54.23 C41.59 -57.406 44.164 -59.98 47.34 -59.98 Z"/></g>
<g id="Semibold-S" transform="matrix(1 0 0 1 1998.1 696)"><path d="M47.34 -76.73 C70.26 -76.73 88.84 -58.15 88.84 -35.23 C88.84 -12.31 70.26 6.27 47.34 6.27 C24.42 6.27 5.84 -12.31 5.84 -35.23 C5.84 -58.15 24.42 -76.73 47.34 -76.73 Z M47.34 -68.28 C29.087 -68.28 14.29 -53.483 14.29 -35.23 C14.29 -16.977 29.087 -2.18 47.34 -2.18 C65.593 -2.18 80.39 -16.977 80.39 -35.23 C80.39 -53.483 65.593 -68.28 47.34 -68.28 Z M42.79 -43.23 L51.89 -43.23 L51.89 -19.23 L42.79 -19.23 Z M47.34 -60.73 C50.93 -60.73 53.84 -57.82 53.84 -54.23 C53.84 -50.64 50.93 -47.73 47.34 -47.73 C43.75 -47.73 40.84 -50.64 40.84 -54.23 C40.84 -57.82 43.75 -60.73 47.34 -60.73 Z"/></g>
<g id="Bold-S" transform="matrix(1 0 0 1 2294.23 696)"><path d="M47.34 -76.73 C70.26 -76.73 88.84 -58.15 88.84 -35.23 C88.84 -12.31 70.26 6.27 47.34 6.27 C24.42 6.27 5.84 -12.31 5.84 -35.23 C5.84 -58.15 24.42 -76.73 47.34 -76.73 Z M47.34 -66.98 C29.805 -66.98 15.59 -52.765 15.59 -35.23 C15.59 -17.695 29.805 -3.48 47.34 -3.48 C64.875 -3.48 79.09 -17.695 79.09 -35.23 C79.09 -52.765 64.875 -66.98 47.34 -66.98 Z M42.09 -43.23 L52.59 -43.23 L52.59 -19.23 L42.09 -19.23 Z M47.34 -61.73 C51.482 -61.73 54.84 -58.372 54.84 -54.23 C54.84 -50.088 51.482 -46.73 47.34 -46.73 C43.198 -46.73 39.84 -50.088 39.84 -54.23 C39.84 -58.372 43.198 -61.73 47.34 -61.73 Z"/></g></g></svg>
